<svg id="svg" version="1.1" xmlns="http://www.w3.org/2000/svg" xmlns:xlink="http://www.w3.org/1999/xlink" width="400" height="225" viewBox="0, 0, 400,225"><g id="svgg"><path id="path0" d="M165.112 132.719 C 155.592 134.201,150.248 144.063,154.400 152.486 C 158.360 160.519,170.074 162.893,177.649 157.199 C 178.753 156.369,180.833 153.998,180.833 153.570 C 180.833 153.494,179.403 152.718,177.654 151.845 L 174.474 150.260 173.488 151.152 C 169.503 154.760,163.001 153.297,162.364 148.649 L 162.236 147.713 171.795 147.658 L 181.354 147.604 181.310 145.729 C 181.103 136.983,174.060 131.327,165.112 132.719 M200.731 132.745 C 198.949 133.085,197.201 134.071,195.624 135.626 L 194.167 137.063 194.167 135.198 L 194.167 133.333 189.688 133.333 L 185.208 133.333 185.208 146.458 L 185.208 159.583 189.678 159.583 L 194.147 159.583 194.209 152.130 L 194.271 144.677 194.953 143.293 C 196.508 140.135,200.122 139.482,204.210 141.619 C 204.292 141.661,205.208 139.998,206.247 137.922 L 208.136 134.149 207.002 133.630 C 204.889 132.662,202.749 132.360,200.731 132.745 M236.499 132.710 C 230.707 133.521,227.643 136.365,227.616 140.952 C 227.592 144.799,229.813 147.080,235.832 149.390 C 238.634 150.466,239.425 151.649,238.176 152.898 C 236.812 154.262,233.804 153.733,230.514 151.549 C 229.878 151.127,229.324 150.816,229.283 150.859 C 229.020 151.133,225.835 156.602,225.840 156.771 C 225.882 158.172,231.844 160.223,235.893 160.228 C 244.234 160.239,248.021 157.533,248.021 151.563 C 248.021 146.987,246.092 144.923,239.935 142.913 C 236.920 141.929,236.181 141.441,236.181 140.440 C 236.181 138.345,239.911 138.301,244.521 140.343 C 244.678 140.412,245.318 139.361,246.245 137.509 L 247.720 134.566 246.620 134.081 C 244.046 132.948,239.346 132.311,236.499 132.710 M263.125 132.637 C 253.188 133.947,247.444 144.268,251.918 152.774 C 256.812 162.081,271.954 162.916,277.908 154.207 C 278.167 153.828,278.345 153.487,278.304 153.449 C 278.263 153.411,276.823 152.680,275.104 151.825 L 271.979 150.269 270.626 151.393 C 266.494 154.828,259.792 152.887,259.792 148.257 L 259.792 147.708 269.297 147.708 L 278.801 147.708 278.700 145.260 C 278.358 136.992,271.605 131.519,263.125 132.637 M170.208 139.021 C 171.223 139.539,172.500 141.327,172.500 142.230 L 172.500 142.708 167.500 142.708 C 164.750 142.708,162.501 142.638,162.501 142.552 C 162.525 139.376,166.940 137.354,170.208 139.021 M266.425 138.554 C 267.686 138.824,269.066 139.944,269.607 141.134 C 270.363 142.798,270.624 142.708,265.000 142.708 C 259.299 142.708,259.571 142.818,260.528 140.898 C 261.544 138.858,263.751 137.981,266.425 138.554 M213.782 149.059 C 207.978 151.666,209.712 160.253,216.040 160.233 C 222.151 160.213,224.061 151.924,218.573 149.239 C 217.545 148.736,214.736 148.630,213.782 149.059 " stroke="none" fill="#fa1313" fill-rule="evenodd"></path><path id="path1" d="M148.542 59.167 C 148.542 64.667,148.497 69.167,148.442 69.167 C 148.387 69.167,147.848 68.792,147.244 68.335 C 137.368 60.855,123.609 72.014,127.467 84.375 C 130.312 93.492,141.360 97.030,147.760 90.875 L 148.542 90.124 148.542 91.624 L 148.542 93.125 153.021 93.125 L 157.500 93.125 157.500 71.146 L 157.500 49.167 153.021 49.167 L 148.542 49.167 148.542 59.167 M173.021 66.350 C 160.024 68.763,157.121 85.516,168.570 92.037 C 173.985 95.121,182.293 94.265,186.772 90.162 C 188.006 89.030,189.526 87.155,189.343 86.988 C 189.303 86.952,187.833 86.203,186.075 85.325 L 182.879 83.728 181.849 84.691 C 177.967 88.323,170.833 86.570,170.833 81.986 L 170.833 81.250 180.313 81.250 L 189.792 81.250 189.788 79.427 C 189.770 70.443,182.311 64.625,173.021 66.350 M208.180 66.363 C 206.678 66.767,205.232 67.533,203.864 68.647 L 202.708 69.588 202.708 68.232 L 202.708 66.875 198.125 66.875 L 193.542 66.875 193.542 80.000 L 193.542 93.125 198.125 93.125 L 202.708 93.125 202.708 84.889 C 202.708 75.818,202.715 75.765,204.012 74.425 C 205.533 72.853,208.476 72.968,210.110 74.665 C 211.426 76.030,211.458 76.286,211.458 85.180 L 211.458 93.125 216.042 93.125 L 220.625 93.125 220.625 84.768 L 220.625 76.411 221.182 75.388 C 222.763 72.483,227.187 72.666,228.811 75.703 C 229.260 76.542,229.272 76.762,229.332 84.844 L 229.393 93.125 233.872 93.125 L 238.352 93.125 238.291 82.969 C 238.220 71.291,238.252 71.501,236.216 69.273 C 232.325 65.016,225.585 65.035,221.033 69.317 L 219.413 70.840 218.991 70.160 C 217.122 67.151,211.971 65.342,208.180 66.363 M255.313 66.168 C 245.708 67.590,240.191 74.562,241.982 83.015 C 245.006 97.293,269.084 97.609,272.713 83.417 C 275.220 73.618,266.094 64.571,255.313 66.168 M178.313 72.418 C 179.602 72.956,180.541 74.134,180.912 75.677 L 181.050 76.250 176.018 76.250 L 170.987 76.250 171.107 75.512 C 171.569 72.666,175.188 71.112,178.313 72.418 M145.391 74.466 C 151.093 77.356,149.071 86.097,142.700 86.102 C 138.725 86.105,136.078 83.166,136.537 79.257 C 137.040 74.981,141.570 72.530,145.391 74.466 M260.183 74.466 C 265.885 77.356,263.863 86.097,257.492 86.102 C 253.516 86.105,250.870 83.166,251.329 79.257 C 251.831 74.981,256.361 72.530,260.183 74.466 " stroke="none" fill="#5373fa" fill-rule="evenodd"></path><path id="path2" d="M189.896 0.316 C 110.499 8.221,63.813 91.129,98.745 162.188 C 131.990 229.815,221.151 246.255,276.458 194.956 C 321.925 152.784,324.489 81.100,282.151 35.789 C 263.355 15.673,239.732 3.879,211.458 0.494 C 207.535 0.025,193.951 -0.087,189.896 0.316 M157.657 71.094 L 157.710 93.125 153.126 93.125 L 148.542 93.125 148.542 91.638 L 148.542 90.151 147.526 91.101 C 143.060 95.278,135.313 94.772,130.758 90.004 C 123.354 82.254,127.010 68.471,137.032 66.347 C 140.730 65.563,145.238 66.492,147.537 68.511 C 147.948 68.872,148.342 69.167,148.413 69.167 C 148.484 69.167,148.542 64.618,148.542 59.058 L 148.542 48.950 153.073 49.006 L 157.604 49.063 157.657 71.094 M180.104 66.552 C 184.579 67.723,187.890 70.774,189.159 74.896 C 189.617 76.386,190.018 79.813,189.841 80.737 L 189.743 81.250 180.261 81.250 L 170.779 81.250 170.883 82.175 C 171.397 86.734,177.901 88.243,181.810 84.711 L 182.891 83.735 186.081 85.328 C 187.835 86.205,189.308 86.957,189.354 86.999 C 189.841 87.450,185.905 91.196,183.923 92.168 C 174.132 96.970,162.779 91.663,161.432 81.655 C 160.114 71.864,169.962 63.899,180.104 66.552 M213.021 66.356 C 215.617 66.904,219.375 69.452,219.375 70.665 C 219.375 70.788,220.103 70.196,220.992 69.351 C 225.540 65.025,231.774 64.901,235.956 69.053 C 238.335 71.416,238.538 72.638,238.540 84.635 L 238.542 93.125 233.958 93.125 L 229.375 93.125 229.375 85.350 C 229.375 78.924,229.319 77.386,229.051 76.485 C 227.933 72.719,222.610 72.213,221.017 75.721 C 220.666 76.492,220.634 77.260,220.630 84.844 L 220.625 93.125 216.042 93.125 L 211.458 93.125 211.457 85.260 C 211.456 77.120,211.394 76.418,210.566 75.189 C 208.668 72.372,203.820 72.984,202.941 76.151 C 202.791 76.689,202.710 79.805,202.709 85.052 L 202.708 93.125 198.125 93.125 L 193.542 93.125 193.542 80.000 L 193.542 66.875 198.125 66.875 L 202.708 66.875 202.708 68.245 L 202.708 69.616 203.786 68.673 C 206.419 66.369,209.463 65.606,213.021 66.356 M260.833 66.340 C 269.414 67.900,274.682 75.350,272.812 83.280 C 269.636 96.749,246.675 97.651,242.314 84.479 C 238.785 73.818,248.676 64.130,260.833 66.340 M173.371 72.624 C 172.217 73.200,171.379 74.303,171.122 75.587 L 170.990 76.250 176.006 76.250 L 181.022 76.250 180.737 75.303 C 179.859 72.386,176.385 71.123,173.371 72.624 M141.401 73.964 C 137.821 74.574,135.740 78.313,136.851 82.138 C 138.307 87.152,145.966 87.468,148.156 82.604 C 150.223 78.014,146.392 73.114,141.401 73.964 M256.192 73.964 C 252.613 74.574,250.531 78.313,251.642 82.138 C 253.099 87.152,260.757 87.468,262.948 82.604 C 265.015 78.014,261.183 73.114,256.192 73.964 M172.396 133.203 C 178.117 135.045,181.458 139.775,181.458 146.033 L 181.458 147.708 171.906 147.708 L 162.354 147.708 162.515 148.730 C 163.238 153.299,169.548 154.666,173.379 151.083 L 174.401 150.127 177.721 151.777 C 179.547 152.685,181.042 153.464,181.042 153.509 C 181.042 154.351,177.424 157.727,175.522 158.660 C 165.022 163.807,152.937 157.317,152.920 146.521 C 152.904 136.830,162.750 130.097,172.396 133.203 M204.625 132.729 C 205.895 132.992,208.125 133.928,208.125 134.197 C 208.125 134.297,207.283 136.062,206.253 138.119 L 204.381 141.858 203.380 141.339 C 200.039 139.605,196.352 140.510,194.986 143.397 L 194.375 144.688 194.375 152.135 L 194.375 159.583 189.688 159.583 L 185.000 159.583 185.000 146.458 L 185.000 133.333 189.688 133.333 L 194.375 133.333 194.375 135.033 L 194.375 136.733 195.677 135.492 C 198.441 132.858,201.176 132.014,204.625 132.729 M243.958 133.113 C 245.960 133.637,247.708 134.335,247.708 134.612 C 247.708 134.783,245.052 140.206,244.873 140.398 C 244.830 140.445,244.161 140.235,243.387 139.930 C 240.363 138.741,237.075 138.608,236.414 139.648 C 235.638 140.869,236.668 141.756,240.212 142.918 C 247.107 145.179,249.817 149.473,247.731 154.834 C 245.381 160.873,232.114 162.500,226.388 157.451 L 225.617 156.771 227.407 153.752 C 228.391 152.092,229.224 150.707,229.257 150.674 C 229.290 150.641,229.822 150.958,230.440 151.378 C 234.421 154.088,238.542 154.288,238.542 151.771 C 238.542 150.820,238.118 150.422,236.343 149.706 C 229.415 146.909,227.350 144.773,227.543 140.599 C 227.834 134.291,235.350 130.864,243.958 133.113 M269.271 133.004 C 275.132 134.576,278.528 139.002,278.899 145.550 L 279.021 147.708 269.388 147.708 L 259.755 147.708 259.901 148.594 C 260.672 153.277,266.858 154.680,270.863 151.080 L 271.917 150.132 275.125 151.732 C 278.692 153.510,278.614 153.415,277.610 154.784 C 272.416 161.859,260.097 162.365,254.002 155.753 C 244.301 145.228,255.063 129.194,269.271 133.004 M129.733 133.385 C 129.843 133.529,131.270 136.646,132.903 140.313 C 134.536 143.979,135.937 147.048,136.017 147.133 C 136.097 147.218,137.576 144.124,139.304 140.258 L 142.446 133.229 147.785 133.229 C 151.204 133.229,153.126 133.304,153.129 133.438 C 153.131 133.552,150.014 139.482,146.202 146.614 L 139.271 159.583 136.078 159.531 L 132.886 159.479 125.922 146.492 C 122.092 139.350,118.958 133.420,118.958 133.315 C 118.958 133.002,129.490 133.071,129.733 133.385 M165.104 139.035 C 163.904 139.599,163.477 140.023,163.029 141.095 C 162.320 142.791,162.084 142.708,167.627 142.708 L 172.545 142.708 172.402 142.135 C 171.628 139.028,168.210 137.576,165.104 139.035 M262.966 138.820 C 261.457 139.367,260.208 140.883,260.208 142.167 L 260.208 142.708 265.108 142.708 L 270.008 142.708 269.875 142.135 C 269.220 139.309,265.948 137.739,262.966 138.820 M218.669 149.230 C 222.433 151.137,223.040 156.147,219.848 158.957 C 216.092 162.263,210.140 159.499,210.169 154.462 C 210.195 150.068,214.768 147.253,218.669 149.230 " stroke="none" fill="#040404" fill-rule="evenodd"></path><path id="path3" d="M119.963 135.167 C 120.499 136.176,123.656 142.082,126.979 148.292 L 133.021 159.583 136.103 159.531 L 139.185 159.479 146.155 146.473 C 149.988 139.320,153.125 133.435,153.125 133.397 C 153.125 133.358,150.724 133.351,147.789 133.382 L 142.454 133.438 139.319 140.461 C 137.595 144.323,136.123 147.446,136.049 147.400 C 135.974 147.354,134.513 144.171,132.801 140.327 L 129.688 133.337 124.338 133.335 L 118.988 133.333 119.963 135.167 " stroke="none" fill="#fafafa" fill-rule="evenodd"></path><path id="path4" d="M152.968 49.112 L 157.498 49.175 157.553 71.098 L 157.607 93.021 157.606 71.042 L 157.604 49.063 153.021 49.056 L 148.438 49.050 152.968 49.112 M175.677 72.019 C 175.878 72.071,176.206 72.071,176.406 72.019 C 176.607 71.966,176.443 71.923,176.042 71.923 C 175.641 71.923,175.477 71.966,175.677 72.019 M238.429 84.271 C 238.429 89.198,238.456 91.184,238.489 88.684 C 238.523 86.184,238.523 82.153,238.489 79.725 C 238.456 77.298,238.429 79.344,238.429 84.271 M236.719 132.644 C 236.919 132.696,237.247 132.696,237.448 132.644 C 237.648 132.591,237.484 132.548,237.083 132.548 C 236.682 132.548,236.518 132.591,236.719 132.644 M121.498 133.281 C 122.952 133.316,125.390 133.316,126.915 133.281 C 128.440 133.245,127.250 133.216,124.271 133.216 C 121.292 133.216,120.044 133.245,121.498 133.281 M142.428 133.281 C 142.375 133.367,144.798 133.438,147.813 133.438 C 150.827 133.438,153.250 133.367,153.197 133.281 C 153.144 133.195,150.721 133.125,147.813 133.125 C 144.904 133.125,142.481 133.195,142.428 133.281 M185.098 146.458 C 185.098 153.734,185.124 156.711,185.156 153.073 C 185.188 149.435,185.188 143.482,185.156 139.844 C 185.124 136.206,185.098 139.182,185.098 146.458 M194.209 135.156 C 194.164 137.222,194.175 137.267,194.610 136.731 C 194.786 136.514,194.799 136.436,194.644 136.530 C 194.457 136.642,194.374 136.235,194.322 134.955 L 194.251 133.229 194.209 135.156 M229.466 135.677 L 228.854 136.354 229.531 135.742 C 230.162 135.172,230.304 135.000,230.143 135.000 C 230.107 135.000,229.803 135.305,229.466 135.677 M254.263 136.927 L 253.229 138.021 254.323 136.987 C 254.924 136.418,255.417 135.926,255.417 135.893 C 255.417 135.738,255.224 135.911,254.263 136.927 M156.864 136.823 L 156.146 137.604 156.927 136.886 C 157.654 136.218,157.804 136.042,157.645 136.042 C 157.610 136.042,157.259 136.393,156.864 136.823 M167.031 138.480 C 167.289 138.530,167.711 138.530,167.969 138.480 C 168.227 138.431,168.016 138.390,167.500 138.390 C 166.984 138.390,166.773 138.431,167.031 138.480 M264.531 138.480 C 264.789 138.530,265.211 138.530,265.469 138.480 C 265.727 138.431,265.516 138.390,265.000 138.390 C 264.484 138.390,264.273 138.431,264.531 138.480 M181.298 144.583 C 181.298 144.984,181.341 145.148,181.394 144.948 C 181.446 144.747,181.446 144.419,181.394 144.219 C 181.341 144.018,181.298 144.182,181.298 144.583 M278.821 146.146 C 278.822 147.063,278.859 147.412,278.903 146.922 C 278.947 146.432,278.946 145.682,278.901 145.255 C 278.857 144.828,278.821 145.229,278.821 146.146 M194.260 152.396 C 194.261 156.406,194.289 158.017,194.323 155.976 C 194.357 153.935,194.357 150.654,194.323 148.684 C 194.288 146.715,194.260 148.385,194.260 152.396 M250.265 146.458 C 250.265 146.974,250.306 147.185,250.355 146.927 C 250.405 146.669,250.405 146.247,250.355 145.990 C 250.306 145.732,250.265 145.943,250.265 146.458 M215.469 148.691 C 215.784 148.739,216.299 148.739,216.615 148.691 C 216.930 148.643,216.672 148.604,216.042 148.604 C 215.411 148.604,215.154 148.643,215.469 148.691 M173.530 150.990 L 172.813 151.771 173.594 151.053 C 174.321 150.385,174.471 150.208,174.312 150.208 C 174.277 150.208,173.925 150.560,173.530 150.990 M248.192 151.458 C 248.192 152.203,248.229 152.508,248.276 152.135 C 248.322 151.763,248.322 151.154,248.276 150.781 C 248.229 150.409,248.192 150.714,248.192 151.458 M254.271 156.042 C 254.835 156.615,255.344 157.083,255.401 157.083 C 255.458 157.083,255.043 156.615,254.479 156.042 C 253.915 155.469,253.406 155.000,253.349 155.000 C 253.292 155.000,253.707 155.469,254.271 156.042 M276.138 156.302 L 275.104 157.396 276.198 156.362 C 276.799 155.793,277.292 155.301,277.292 155.268 C 277.292 155.113,277.099 155.286,276.138 156.302 M156.250 155.482 C 156.250 155.518,156.555 155.822,156.927 156.159 L 157.604 156.771 156.992 156.094 C 156.422 155.463,156.250 155.321,156.250 155.482 M165.992 160.356 C 166.251 160.406,166.626 160.404,166.825 160.351 C 167.025 160.299,166.813 160.259,166.354 160.261 C 165.896 160.263,165.733 160.306,165.992 160.356 M167.969 160.358 C 168.284 160.405,168.799 160.405,169.115 160.358 C 169.430 160.310,169.172 160.271,168.542 160.271 C 167.911 160.271,167.654 160.310,167.969 160.358 M234.323 160.355 C 234.581 160.405,235.003 160.405,235.260 160.355 C 235.518 160.306,235.307 160.265,234.792 160.265 C 234.276 160.265,234.065 160.306,234.323 160.355 M236.510 160.358 C 236.826 160.405,237.341 160.405,237.656 160.358 C 237.971 160.310,237.714 160.271,237.083 160.271 C 236.453 160.271,236.195 160.310,236.510 160.358 M263.281 160.355 C 263.539 160.405,263.961 160.405,264.219 160.355 C 264.477 160.306,264.266 160.265,263.750 160.265 C 263.234 160.265,263.023 160.306,263.281 160.355 M265.469 160.358 C 265.784 160.405,266.299 160.405,266.615 160.358 C 266.930 160.310,266.672 160.271,266.042 160.271 C 265.411 160.271,265.154 160.310,265.469 160.358 " stroke="none" fill="#5e1515" fill-rule="evenodd"></path></g></svg>